<?xml version="1.0" encoding="UTF-8"?>
<svg id="Illustration" xmlns="http://www.w3.org/2000/svg" width="80" height="80" version="1.1" viewBox="0 0 80 80">
  <!-- Generator: Adobe Illustrator 29.1.0, SVG Export Plug-In . SVG Version: 2.1.0 Build 142)  -->
  <defs>
    <style>
      .st0 {
        fill: #336ecc;
      }

      .st1 {
        fill: #374e80;
      }
    </style>
  </defs>
  <g>
    <path class="st0" d="M65.74,17.31h-1.1c-.36-1.64-1.15-3.12-2.25-4.32l-1.1-7.73c-.07-.58-.56-1.02-1.15-1.02h-3.5v1.5h3.21l.82,5.76c-1.47-.98-3.24-1.55-5.13-1.55s-3.62.56-5.08,1.51l.97-5.73h2.75v-1.5h-3.04c-.58,0-1.08.44-1.14.98l-1.32,7.76c-1.53,1.66-2.47,3.87-2.47,6.3s.94,4.64,2.47,6.3l1.31,7.72c.07.58.57,1.02,1.15,1.02h9c.59,0,1.08-.44,1.15-1l1.1-7.73c1.1-1.2,1.9-2.68,2.25-4.32h1.1c.64,0,1.16-.52,1.16-1.16v-1.63c0-.64-.52-1.16-1.16-1.16ZM59.84,32.82h-8.42l-.97-5.72c1.46.95,3.2,1.51,5.08,1.51s3.66-.57,5.13-1.55l-.82,5.76ZM55.53,27.11c-4.31,0-7.82-3.51-7.82-7.82s3.51-7.82,7.82-7.82,7.82,3.51,7.82,7.82-3.51,7.82-7.82,7.82ZM65.39,19.76h-.57c0-.16.02-.31.02-.47s-.02-.32-.02-.48h.57s0,.95,0,.95Z"/>
    <path class="st0" d="M55.61,18.77l-4.36-2.73-.42.68,4.59,2.86c.06.04.14.06.21.06.08,0,.16-.02.22-.07l3.41-2.31-.45-.66-3.19,2.17h-.01Z"/>
  </g>
  <g>
    <path class="st1" d="M75.58,40.27l-8.63-12.31c-.34-.45-.84-.71-1.37-.71h-1.19v1.5h1.19c.05,0,.12.04.16.09l8.33,11.88h-18.92v.8h19.25v4.62s-.08.11-.25.11h-24v1.5h24c.96,0,1.75-.72,1.75-1.61v-4.87c0-.36-.11-.71-.32-1Z"/>
    <path class="st1" d="M39.8,63.69l-.26-3.95c2.03-2.25,3.52-5.48,3.86-8.36,4.09-3.79,4.73-6.63,4.54-8.36-.13-1.15-.67-2.14-1.51-2.75v-8.57c0-7.67-7.68-12.12-14.83-13.02l-.2-.02c-1.83-.14-2.94-.23-4.4-.1-7.58.56-15.68,5.16-15.68,16.38v5.38c-.8.61-1.32,1.57-1.44,2.69-.19,1.72.45,4.56,4.53,8.35l.02.11c.57,3.91,1.87,6.09,3.64,8.07l-.15,3.81c-6.3,1.44-11.22,4.18-13.54,7.54l1.23.85c2.14-3.1,6.82-5.63,12.87-6.98l8.97,5.56-2.41,4.03-5.64-5.64-.57.57,6,6c.08.08.18.12.28.12h.05c.12-.02.23-.09.29-.19l2.87-4.8c.11-.19.05-.43-.13-.55l-8.83-5.47.17-4.4c2.46,2.25,5.73,3.63,9.32,3.63s6.75-1.34,9.2-3.52l.3,4.52-7.81,5.25c-.18.12-.23.35-.12.54l2.87,4.8c.06.11.17.18.29.19h.05c.11,0,.21-.04.28-.12l6-6-.57-.57-5.64,5.64-2.41-4.04,7.81-5.25c5.17,1.33,9.17,3.53,11.28,6.21l1.18-.93c-2.27-2.88-6.44-5.24-11.78-6.66l.02.01ZM46.45,43.19c.12,1.1-.23,3.4-3.73,6.77,0-.07.01-.14.01-.2v-6.95c.41-.88.88-1.41,1.42-1.6.3-.1.62-.09.96.02l.27.15c.59.34.98,1,1.07,1.81ZM11.37,43.19c.09-.81.48-1.47,1.07-1.81l.13-.08c1.32-.43,1.97.37,2.43,1.23v7.34c-3.42-3.32-3.76-5.6-3.64-6.69l.01.01ZM16.56,54.08c-.27-.83-.49-1.75-.65-2.85l-.03-.17c-.04-.43-.07-.87-.07-1.31v-10.13h-.8v1.51c-.47-.49-1.17-.9-2.19-.72v-5.46c0-10.19,7.38-14.37,14.3-14.88,1.34-.12,2.4-.03,4.16.1h.17c6.49.83,13.47,4.78,13.47,11.54v8.66c-.35-.06-.7-.04-1.03.08-.46.16-.86.49-1.24.97-.39-2.47-2.36-4.49-4.9-4.85-6.48-.91-13.47-3.44-17.06-4.86-1.28-.51-2.72-.35-3.87.42-1.14.76-1.8,1.98-1.81,3.33h.8c.01-1.08.54-2.05,1.46-2.66.93-.62,2.1-.75,3.13-.34,4.43,1.75,11.01,4.03,17.24,4.91,2.45.35,4.3,2.47,4.3,4.95v7.44c0,1.7-.34,3.32-.93,4.82-.07.17-.14.34-.22.51-.07.16-.15.32-.23.48-.09.18-.18.37-.28.55-2.24,3.99-6.51,6.7-11.4,6.7-5.69,0-10.52-3.66-12.31-8.74h-.01Z"/>
  </g>
</svg>