<?xml version="1.0" encoding="UTF-8"?>
<svg id="Illustration" xmlns="http://www.w3.org/2000/svg" width="80" height="80" version="1.1" viewBox="0 0 80 80">
  <!-- Generator: Adobe Illustrator 29.1.0, SVG Export Plug-In . SVG Version: 2.1.0 Build 142)  -->
  <defs>
    <style>
      .st0 {
        fill: #336ecc;
      }

      .st1 {
        fill: #374e80;
      }
    </style>
  </defs>
  <g>
    <path class="st0" d="M39.49,28.64l-4.76-4.76-.57.57,5.05,5.05c.08.08.18.12.28.12s.2-.04.28-.12l8.41-8.41-.57-.57-8.13,8.13.01-.01Z"/>
    <path class="st0" d="M40,6.9c-9.76,0-17.7,7.94-17.7,17.7,0,5.62,2.71,10.96,7.25,14.29l.89-1.21c-4.15-3.04-6.63-7.93-6.63-13.08,0-8.93,7.27-16.2,16.2-16.2s16.2,7.27,16.2,16.2c0,3.73-1.23,7.23-3.56,10.13l1.17.94c2.51-3.12,3.89-7.06,3.89-11.07,0-9.76-7.94-17.7-17.7-17.7h-.01Z"/>
  </g>
  <path class="st1" d="M74.07,39.16h-8.04c-.96,0-1.75.79-1.75,1.75v19.94h-4.21l-3.09,2.77-17.31-17.54c-.27-.27-.7-.3-1-.06-5.51,4.3-8.84,2.83-10.09,1.91l11.61-9.38c.22-.18.5-.28.79-.28h6.72c.27,0,.53.09.74.25.9.67,1.7,1.36,2.48,2.02,2.6,2.21,5.05,4.31,9.62,4.31v-1.5c-4.02,0-6.07-1.74-8.65-3.95-.79-.68-1.62-1.38-2.55-2.08-.48-.36-1.05-.55-1.64-.55h-6.72c-.63,0-1.24.22-1.73.61l-5.47,4.42H15.79v-.8c0-.96-.79-1.75-1.75-1.75H6c-.96,0-1.75.79-1.75,1.75v24c0,.96.79,1.75,1.75,1.75h8.04c.96,0,1.75-.79,1.75-1.75v-21.7h16.13l-4.97,4.01c-.16.13-.25.31-.27.51-.02.2.04.4.17.55.04.05,4.3,5.05,12.21-.76l18.41,18.65c.73.74.73,1.95,0,2.69-.74.75-1.96.75-2.7,0l-8.85-8.85-.53.53-.53.53,5.69,5.78c.73.74.73,1.95-.01,2.69-.72.72-1.98.72-2.7,0l-2.59-2.59h0l-6.26-6.26-1.06,1.06,6.26,6.26c.74.75.74,1.96,0,2.7l-.37.37c-.75.74-1.96.75-2.7,0l-8.85-8.85-.53.53-.54.52,4.92,5.1c.72.74.71,1.94-.05,2.7-.74.75-1.96.75-2.7,0l-10.72-10.72c-.14-.14-.33-.22-.53-.22h-3.23v1.5h2.92l10.5,10.5c.66.66,1.53,1,2.4.99.88,0,1.76-.34,2.44-1.02.54-.54.85-1.23.95-1.94l1.96,1.96c.66.67,1.54,1,2.41,1s1.75-.33,2.41-1l.37-.37c.5-.5.81-1.12.94-1.77l.6.6c.64.64,1.5,1,2.41,1s1.77-.35,2.41-1c.52-.52.83-1.17.94-1.86l1.18,1.18c.66.67,1.54,1,2.41,1s1.75-.33,2.41-1c1.32-1.32,1.33-3.48.02-4.81l-.5-.51,2.61-2.34h3.64v2.43c0,.96.79,1.75,1.75,1.75h8.04c.96,0,1.75-.79,1.75-1.75v-23.87c0-.96-.79-1.75-1.75-1.75l-.04.01ZM14.29,65c0,.14-.11.25-.25.25H6c-.14,0-.25-.11-.25-.25v-24c0-.14.11-.25.25-.25h8.04c.14,0,.25.11.25.25v24ZM74.32,64.79c0,.14-.11.25-.25.25h-8.04c-.14,0-.25-.11-.25-.25v-23.87c0-.14.11-.25.25-.25h8.04c.14,0,.25.11.25.25v23.87Z"/>
</svg>