<?xml version="1.0" encoding="UTF-8"?>
<svg id="Illustration" xmlns="http://www.w3.org/2000/svg" width="80" height="80" version="1.1" viewBox="0 0 80 80">
  <!-- Generator: Adobe Illustrator 29.1.0, SVG Export Plug-In . SVG Version: 2.1.0 Build 142)  -->
  <defs>
    <style>
      .st0 {
        fill: #336ecc;
      }

      .st1 {
        fill: #374e80;
      }
    </style>
  </defs>
  <g>
    <path class="st0" d="M58,5.03c-7.11,0-13.52,4.23-16.32,10.76l1.38.59c2.57-5.99,8.43-9.85,14.94-9.85,8.96,0,16.25,7.29,16.25,16.25,0,8.41-6.3,15.36-14.66,16.17-.2.02-.39.12-.51.28l-4.55,5.65v-5.65c0-.34-.23-.64-.56-.73-1.14-.29-2.26-.71-3.31-1.25l-.68,1.34c.98.5,2,.9,3.06,1.21v7.2c0,.32.2.6.5.71.08.03.17.04.25.04.22,0,.44-.1.58-.28l5.69-7.06c8.97-1.03,15.7-8.55,15.7-17.63,0-9.79-7.96-17.75-17.75-17.75h-.01Z"/>
    <path class="st0" d="M52.73,29.93c-.03.15.03.3.16.39.07.05.15.08.24.08.06,0,.13-.02.19-.05l4.69-2.52,4.69,2.52c.14.07.3.06.42-.03s.19-.24.16-.39l-.94-5.24,3.84-3.69c.11-.11.15-.27.1-.41s-.17-.25-.33-.27l-5.27-.72-2.32-4.79c-.13-.28-.59-.28-.72,0l-2.32,4.79-5.27.72c-.15.02-.28.13-.33.27s0,.31.1.41l3.84,3.68-.94,5.24.01.01ZM50.98,21l4.67-.64c.13-.02.25-.1.31-.22l2.05-4.24,2.05,4.24c.06.12.17.2.31.22l4.67.64-3.4,3.26c-.1.09-.14.23-.12.36l.83,4.64-4.15-2.23c-.06-.03-.12-.05-.19-.05s-.13.02-.19.05l-4.15,2.23.83-4.64c.02-.13-.02-.27-.12-.36,0,0-3.4-3.26-3.4-3.26Z"/>
  </g>
  <path class="st1" d="M39.8,63.69l-.26-3.95c2.11-2.33,3.66-5.51,4.02-8.26,4.02-3.69,4.64-6.52,4.45-8.24-.13-1.2-.72-2.26-1.59-2.92v-8.62c0-7.67-7.67-12.12-14.79-13.01l-.19,1.49c6.49.81,13.47,4.77,13.47,11.52v8.66c-.42-.06-.83-.02-1.2.13-.46.18-.81.48-1.08.8-.43-2.42-2.39-4.37-4.89-4.72-6.48-.91-13.47-3.44-17.06-4.86-1.28-.51-2.72-.35-3.87.42-1.14.76-1.8,1.97-1.81,3.33h.8c.01-1.08.54-2.05,1.46-2.66.93-.62,2.1-.75,3.13-.34,4.43,1.75,11.01,4.03,17.24,4.91,2.45.35,4.3,2.47,4.3,4.95v7.44c0,7.2-5.86,13.06-13.06,13.06-4.93,0-9.23-2.75-11.46-6.79l-.15-.3c-.11-.22-.22-.43-.32-.66-.08-.18-.15-.36-.23-.54-.11-.28-.22-.56-.31-.84,0-.02-.01-.04-.02-.07-.38-1.22-.58-2.52-.58-3.86v-10.13h-.8v1.4c-.46-.48-1.15-.84-2.19-.63v-5.45c0-10.19,7.38-14.37,14.29-14.88l-.11-1.5c-7.58.56-15.68,5.16-15.68,16.38v5.38c-.82.63-1.35,1.61-1.48,2.75-.19,1.73.45,4.56,4.51,8.32.34,2.84,1.78,6.02,3.72,8.24l-.15,3.71c-6.3,1.44-11.22,4.18-13.54,7.54l1.23.85c2.15-3.12,6.87-5.66,12.97-7,.06,4.02,3.36,8.47,7.78,8.47v-.8c-3.93,0-6.98-4.18-6.98-7.77v-.23l.17-4.42c2.46,2.24,5.73,3.63,9.31,3.63s6.75-1.34,9.2-3.52l.26,4.02v.52c-.01,3.67-2.95,7.77-6.89,7.77h-.55v.8h.55c4.25,0,7.45-4.22,7.66-8.15,5.18,1.33,9.2,3.54,11.31,6.22l1.18-.93c-2.27-2.88-6.44-5.24-11.78-6.66h.01ZM11.33,43.25c.13-1.18.82-1.7,1.11-1.87l.14-.08c1.46-.5,1.99.33,2.43,1.14v7.31c0,.07.01.15.01.22-3.46-3.33-3.81-5.63-3.69-6.73v.01ZM44,41.24c.29-.11.62-.12.97-.05l.32.18c.67.38,1.13,1.14,1.22,2.03.12,1.11-.23,3.47-3.81,6.82,0-.16.02-.32.02-.48v-7.06c.12-.31.52-1.15,1.27-1.44h.01Z"/>
</svg>