<?xml version="1.0" encoding="UTF-8"?>
<svg id="Illustration" xmlns="http://www.w3.org/2000/svg" width="80" height="80" version="1.1" viewBox="0 0 80 80">
  <!-- Generator: Adobe Illustrator 29.1.0, SVG Export Plug-In . SVG Version: 2.1.0 Build 142)  -->
  <defs>
    <style>
      .st0 {
        fill: #336ecc;
      }

      .st1 {
        fill: #374e80;
      }
    </style>
  </defs>
  <g>
    <path class="st1" d="M38.32,66.29c0,.94.77,1.71,1.71,1.71s1.71-.77,1.71-1.71-.77-1.71-1.71-1.71-1.71.77-1.71,1.71ZM40.94,66.29c0,.5-.41.91-.91.91s-.91-.41-.91-.91.41-.91.91-.91.91.41.91.91Z"/>
    <path class="st1" d="M64.8,36.25h-3.58c-.75-4.32-2.78-8.2-5.69-11.24l-2.71-19.22c-.11-.88-.85-1.54-1.74-1.54h-8.58v1.5h8.58c.13,0,.23.09.25.23l2.45,17.38c-3.78-3.19-8.66-5.11-13.99-5.11s-10.15,1.9-13.92,5.06l2.92-17.34c.02-.13.12-.22.25-.22h7.44v-1.5h-7.44c-.88,0-1.63.66-1.73,1.5l-3.24,19.25c-3.73,3.91-6.02,9.19-6.02,15s2.3,11.11,6.04,15.02h-.03l3.25,19.18c.11.88.85,1.54,1.74,1.54h9.68c.41,0,.75-.34.75-.75,0-.31.25-.56.56-.56s.56.25.56.56c0,.41.34.75.75.75h9.74c.88,0,1.63-.66,1.74-1.52l.75-5.3-1.48-.21-.76,5.32c-.02.13-.12.22-.25.22h-9.13c-.3-.77-1.05-1.31-1.92-1.31s-1.62.54-1.92,1.31h-9.07c-.13,0-.23-.09-.25-.25l-2.93-17.3c3.78,3.16,8.64,5.07,13.94,5.07s10.21-1.93,14-5.12l-1.03,7.34,1.49.21,1.29-9.18h-.02c2.93-3.08,4.98-7,5.71-11.37v.11h3.56c.96,0,1.75-.79,1.75-1.75v-4c0-.96-.79-1.75-1.75-1.75l-.01-.01ZM39.8,60.25c-11.17,0-20.25-9.08-20.25-20.25s9.08-20.25,20.25-20.25,20.25,9.08,20.25,20.25-9.08,20.25-20.25,20.25ZM65.05,42c0,.14-.11.25-.25.25h-3.37c.08-.74.12-1.49.12-2.25s-.04-1.51-.12-2.25h3.37c.14,0,.25.11.25.25v4Z"/>
    <path class="st1" d="M39.81,23.6c-9.04,0-16.4,7.36-16.4,16.4s7.36,16.4,16.4,16.4,16.4-7.36,16.4-16.4-7.36-16.4-16.4-16.4ZM39.81,55.6c-8.6,0-15.6-7-15.6-15.6s7-15.6,15.6-15.6,15.6,7,15.6,15.6-7,15.6-15.6,15.6Z"/>
  </g>
  <path class="st0" d="M40.01,47.75c-.43,0-.83-.17-1.13-.47h0l-6.11-6.15c-1.14-1.15-1.67-2.73-1.46-4.35.31-2.4,2.29-4.3,4.72-4.51,1.48-.13,2.92.37,3.98,1.35,1.07-.98,2.51-1.47,3.98-1.35,2.43.2,4.41,2.09,4.72,4.51.21,1.62-.33,3.21-1.46,4.35l-6.11,6.15c-.3.3-.7.47-1.13.47ZM39.94,46.22s.1.03.13,0l6.11-6.15c.81-.82,1.19-1.95,1.04-3.11-.22-1.69-1.66-3.06-3.36-3.2-1.26-.11-2.48.42-3.27,1.42-.14.18-.36.28-.59.28-.2.02-.45-.11-.59-.29-.77-.99-1.99-1.52-3.26-1.41-1.7.15-3.15,1.52-3.36,3.2-.15,1.16.23,2.29,1.04,3.11,0,0,6.11,6.15,6.11,6.15Z"/>
</svg>